<?xml version="1.0" encoding="UTF-8"?>
<svg width="700pt" height="700pt" version="1.1" viewBox="0 0 700 700" xmlns="http://www.w3.org/2000/svg" xmlns:xlink="http://www.w3.org/1999/xlink">
 <defs>
  <symbol id="m" overflow="visible">
   <path d="m37.516-2.25c-1.9297 1.0117-3.9453 1.7734-6.0469 2.2812-2.0938 0.50781-4.2812 0.76562-6.5625 0.76562-6.793 0-12.18-1.8984-16.156-5.7031-3.9688-3.8008-5.9531-8.957-5.9531-15.469 0-6.5195 1.9844-11.68 5.9531-15.484 3.9766-3.8008 9.3633-5.7031 16.156-5.7031 2.2812 0 4.4688 0.25781 6.5625 0.76562 2.1016 0.51172 4.1172 1.2656 6.0469 2.2656v8.4531c-1.9492-1.332-3.8711-2.3047-5.7656-2.9219-1.8984-0.625-3.8906-0.9375-5.9844-0.9375-3.7617 0-6.7188 1.2031-8.875 3.6094-2.1484 2.4062-3.2188 5.7266-3.2188 9.9531 0 4.2109 1.0703 7.5156 3.2188 9.9219 2.1562 2.4062 5.1133 3.6094 8.875 3.6094 2.0938 0 4.0859-0.30469 5.9844-0.92188 1.8945-0.625 3.8164-1.5977 5.7656-2.9219z"/>
  </symbol>
  <symbol id="b" overflow="visible">
   <path d="m27.453-22.281c-0.85547-0.40625-1.7109-0.70312-2.5625-0.89062-0.84375-0.19531-1.6953-0.29688-2.5469-0.29688-2.5234 0-4.4609 0.80859-5.8125 2.4219-1.3555 1.6172-2.0312 3.9297-2.0312 6.9375v14.109h-9.7969v-30.625h9.7969v5.0312c1.25-2.0078 2.6914-3.4727 4.3281-4.3906 1.6328-0.91406 3.5859-1.375 5.8594-1.375 0.33203 0 0.6875 0.015625 1.0625 0.046875 0.38281 0.023438 0.94141 0.078125 1.6719 0.17188z"/>
  </symbol>
  <symbol id="a" overflow="visible">
   <path d="m35.281-15.391v2.7812h-22.891c0.23828 2.3047 1.0664 4.0273 2.4844 5.1719 1.4258 1.1484 3.4141 1.7188 5.9688 1.7188 2.0508 0 4.1562-0.30078 6.3125-0.90625 2.1641-0.61328 4.3906-1.5391 6.6719-2.7812v7.5469c-2.3125 0.875-4.6328 1.5391-6.9531 1.9844-2.3125 0.44531-4.625 0.67188-6.9375 0.67188-5.543 0-9.8516-1.4062-12.922-4.2188-3.0742-2.8203-4.6094-6.7734-4.6094-11.859 0-5 1.5039-8.9258 4.5156-11.781 3.0195-2.8633 7.1758-4.2969 12.469-4.2969 4.8125 0 8.6602 1.4492 11.547 4.3438 2.8945 2.8984 4.3438 6.7734 4.3438 11.625zm-10.062-3.2656c0-1.8516-0.54688-3.3477-1.6406-4.4844-1.0859-1.1445-2.5-1.7188-4.25-1.7188-1.8984 0-3.4375 0.53906-4.625 1.6094-1.1797 1.0625-1.9141 2.5938-2.2031 4.5938z"/>
  </symbol>
  <symbol id="h" overflow="visible">
   <path d="m18.438-13.781c-2.043 0-3.5781 0.35156-4.6094 1.0469-1.0312 0.6875-1.5469 1.7031-1.5469 3.0469 0 1.2422 0.41016 2.2148 1.2344 2.9219 0.83203 0.69922 1.9883 1.0469 3.4688 1.0469 1.8438 0 3.3906-0.66016 4.6406-1.9844 1.2578-1.3203 1.8906-2.9727 1.8906-4.9531v-1.125zm14.953-3.6875v17.469h-9.875v-4.5469c-1.3125 1.8672-2.793 3.2266-4.4375 4.0781-1.6367 0.84375-3.6328 1.2656-5.9844 1.2656-3.168 0-5.7422-0.92578-7.7188-2.7812-1.9805-1.8516-2.9688-4.2539-2.9688-7.2031 0-3.5938 1.2344-6.2266 3.7031-7.9062 2.4688-1.6758 6.3477-2.5156 11.641-2.5156h5.7656v-0.76562c0-1.5508-0.60938-2.6875-1.8281-3.4062s-3.125-1.0781-5.7188-1.0781c-2.0938 0-4.0469 0.21484-5.8594 0.64062-1.8047 0.41797-3.4766 1.043-5.0156 1.875v-7.4688c2.0938-0.50781 4.1953-0.89453 6.3125-1.1562 2.1133-0.25781 4.2266-0.39062 6.3438-0.39062 5.5195 0 9.5039 1.0898 11.953 3.2656 2.457 2.1797 3.6875 5.7188 3.6875 10.625z"/>
  </symbol>
  <symbol id="g" overflow="visible">
   <path d="m15.391-39.328v8.7031h10.094v7h-10.094v12.984c0 1.4297 0.28125 2.3906 0.84375 2.8906 0.57031 0.5 1.6953 0.75 3.375 0.75h5.0312v7h-8.3906c-3.8672 0-6.6055-0.80469-8.2188-2.4219-1.6172-1.6133-2.4219-4.3516-2.4219-8.2188v-12.984h-4.875v-7h4.875v-8.7031z"/>
  </symbol>
  <symbol id="f" overflow="visible">
   <path d="m25.547-26.141v-16.406h9.8438v42.547h-9.8438v-4.4375c-1.3555 1.8125-2.8438 3.1406-4.4688 3.9844-1.6172 0.83203-3.4922 1.25-5.625 1.25-3.7734 0-6.8711-1.5-9.2969-4.5-2.4297-3-3.6406-6.8594-3.6406-11.578 0-4.7266 1.2109-8.5859 3.6406-11.578 2.4258-3 5.5234-4.5 9.2969-4.5 2.1133 0 3.9844 0.42188 5.6094 1.2656 1.6328 0.84375 3.1289 2.1641 4.4844 3.9531zm-6.4531 19.828c2.0938 0 3.6914-0.76562 4.7969-2.2969 1.1016-1.5312 1.6562-3.7539 1.6562-6.6719 0-2.9141-0.55469-5.1406-1.6562-6.6719-1.1055-1.5312-2.7031-2.2969-4.7969-2.2969-2.0859 0-3.6797 0.76562-4.7812 2.2969-1.1055 1.5312-1.6562 3.7578-1.6562 6.6719 0 2.918 0.55078 5.1406 1.6562 6.6719 1.1016 1.5312 2.6953 2.2969 4.7812 2.2969z"/>
  </symbol>
  <symbol id="e" overflow="visible">
   <path d="m21-6.3125c2.0938 0 3.6914-0.76562 4.7969-2.2969 1.1016-1.5312 1.6562-3.7539 1.6562-6.6719 0-2.9141-0.55469-5.1406-1.6562-6.6719-1.1055-1.5312-2.7031-2.2969-4.7969-2.2969s-3.7031 0.77344-4.8281 2.3125c-1.1172 1.5312-1.6719 3.75-1.6719 6.6562 0 2.8984 0.55469 5.1172 1.6719 6.6562 1.125 1.543 2.7344 2.3125 4.8281 2.3125zm-6.5-19.828c1.3438-1.7891 2.832-3.1094 4.4688-3.9531 1.6445-0.84375 3.5352-1.2656 5.6719-1.2656 3.7695 0 6.8672 1.5 9.2969 4.5 2.4258 2.9922 3.6406 6.8516 3.6406 11.578 0 4.7188-1.2148 8.5781-3.6406 11.578-2.4297 3-5.5273 4.5-9.2969 4.5-2.1367 0-4.0273-0.42188-5.6719-1.2656-1.6367-0.85156-3.125-2.1758-4.4688-3.9688v4.4375h-9.7969v-42.547h9.7969z"/>
  </symbol>
  <symbol id="d" overflow="visible">
   <path d="m0.6875-30.625h9.7812l8.2344 20.781 7-20.781h9.7969l-12.891 33.531c-1.293 3.4062-2.8047 5.7852-4.5312 7.1406-1.7188 1.3633-3.9922 2.0469-6.8125 2.0469h-5.6562v-6.4375h3.0625c1.6562 0 2.8594-0.26562 3.6094-0.79688 0.75781-0.52344 1.3516-1.4648 1.7812-2.8281l0.26562-0.85938z"/>
  </symbol>
  <symbol id="c" overflow="visible">
   <path d="m29.922-7.4375h-16.469l-2.5938 7.4375h-10.578l15.109-40.828h12.562l15.109 40.828h-10.578zm-13.844-7.5781h11.188l-5.5781-16.234z"/>
  </symbol>
  <symbol id="l" overflow="visible">
   <path d="m4.7031-42.547h9.7969v42.547h-9.7969z"/>
  </symbol>
  <symbol id="k" overflow="visible">
   <path d="m12.438-15.672-11.047-14.953h10.375l6.25 9.0781 6.3438-9.0781h10.375l-11.047 14.906 11.594 15.719h-10.375l-6.8906-9.6875-6.7969 9.6875h-10.375z"/>
  </symbol>
  <symbol id="j" overflow="visible">
   <path d="m21.5-25.016c1.6562 0 2.9102-0.36328 3.7656-1.0938 0.85156-0.72656 1.2812-1.8047 1.2812-3.2344 0-1.4062-0.42969-2.4727-1.2812-3.2031-0.85547-0.73828-2.1094-1.1094-3.7656-1.1094h-5.8281v8.6406zm0.34375 17.844c2.1133 0 3.7031-0.44141 4.7656-1.3281 1.0703-0.89453 1.6094-2.2422 1.6094-4.0469 0-1.7695-0.53125-3.0977-1.5938-3.9844-1.0547-0.88281-2.6484-1.3281-4.7812-1.3281h-6.1719v10.688zm9.7969-14.672c2.2578 0.65625 4.0078 1.8711 5.25 3.6406 1.2383 1.7617 1.8594 3.9297 1.8594 6.5 0 3.9375-1.3359 6.875-4 8.8125-2.6562 1.9297-6.7031 2.8906-12.141 2.8906h-17.469v-40.828h15.812c5.6641 0 9.7695 0.85938 12.312 2.5781 2.5391 1.7109 3.8125 4.4492 3.8125 8.2188 0 1.9922-0.46484 3.6836-1.3906 5.0781-0.92969 1.3984-2.2773 2.4336-4.0469 3.1094z"/>
  </symbol>
  <symbol id="i" overflow="visible">
   <path d="m4.375-11.922v-18.703h9.8438v3.0625c0 1.6562-0.011719 3.7422-0.03125 6.25-0.011719 2.5-0.015625 4.1719-0.015625 5.0156 0 2.4609 0.0625 4.2305 0.1875 5.3125 0.125 1.0859 0.34375 1.875 0.65625 2.375 0.39453 0.63672 0.91406 1.125 1.5625 1.4688 0.65625 0.34375 1.3984 0.51562 2.2344 0.51562 2.0391 0 3.6445-0.78125 4.8125-2.3438 1.1641-1.5703 1.75-3.75 1.75-6.5312v-15.125h9.7969v30.625h-9.7969v-4.4375c-1.4805 1.793-3.043 3.1172-4.6875 3.9688-1.6484 0.84375-3.4648 1.2656-5.4531 1.2656-3.543 0-6.2422-1.082-8.0938-3.25-1.8438-2.1758-2.7656-5.332-2.7656-9.4688z"/>
  </symbol>
 </defs>
 <g>
  <path d="m171.25 42.348c-24.73 0-44.855 20.125-44.855 44.879 0 24.73 20.113 44.844 44.855 44.844 24.742 0 44.855-20.113 44.855-44.844 0.003907-24.742-20.125-44.879-44.855-44.879zm0 67.324c-12.375 0-22.457-10.07-22.457-22.445 0-12.387 10.07-22.477 22.457-22.477 12.387 0 22.457 10.078 22.457 22.477 0 12.375-10.066 22.445-22.457 22.445z"/>
  <path d="m349.38 132.07c24.742 0 44.867-20.113 44.867-44.844 0-24.742-20.125-44.879-44.867-44.879-24.742 0-44.867 20.125-44.867 44.879 0 24.73 20.129 44.844 44.867 44.844zm0-67.324c12.387 0 22.469 10.078 22.469 22.477 0 12.375-10.07 22.445-22.469 22.445-12.387 0-22.469-10.07-22.469-22.445 0.003907-12.383 10.082-22.477 22.469-22.477z"/>
  <path d="m171.25 235.13c-24.73 0-44.855 20.113-44.855 44.855 0 24.73 20.113 44.855 44.855 44.855 24.742 0 44.855-20.125 44.855-44.855 0.003907-24.73-20.125-44.855-44.855-44.855zm0 67.312c-12.375 0-22.457-10.07-22.457-22.457s10.07-22.457 22.457-22.457c12.387 0 22.457 10.07 22.457 22.457s-10.066 22.457-22.457 22.457z"/>
  <path d="m584.2 192.77h-140.23v-153.72c0-21.539-17.574-39.055-39.156-39.055h-289.02c-21.539 0-39.055 17.516-39.055 39.055v289.11c0 21.539 17.516 39.043 39.055 39.043h140.28v153.73c0 21.539 17.527 39.055 39.066 39.055h289.06c21.539 0 39.055-17.516 39.055-39.055l-0.003907-289.12c0-21.523-17.516-39.043-39.055-39.043zm-468.41 152.04c-9.1836 0-16.656-7.4688-16.656-16.645v-289.11c0-9.1836 7.4727-16.656 16.656-16.656h289.02c9.2383 0 16.754 7.4688 16.754 16.656v153.72h-126.43c-21.539 0-39.066 17.516-39.066 39.043v113zm485.06 176.13c0 9.1836-7.4688 16.656-16.656 16.656h-289.06c-9.1953 0-16.664-7.4688-16.664-16.656v-289.13c0-9.1719 7.4688-16.645 16.664-16.645h289.06c9.1836 0 16.656 7.4688 16.656 16.645z"/>
  <path d="m350.61 235.13c-0.21484 0-0.39453 0.066407-0.60547 0.066407s-0.39062-0.054688-0.60547-0.054688c-24.73 0-44.855 20.113-44.855 44.855 0 24.73 20.113 44.855 44.855 44.855 0.21094 0 0.39062-0.054688 0.60547-0.066407 0.21094 0.011719 0.39062 0.066407 0.60547 0.066407 24.73 0 44.855-20.113 44.855-44.844 0-24.754-20.125-44.879-44.855-44.879zm-22.457 44.867c0-12.176 9.7539-22.074 21.852-22.398 12.098 0.32422 21.852 10.227 21.852 22.398 0 12.176-9.7539 22.055-21.852 22.379-12.098-0.32422-21.852-10.215-21.852-22.379z"/>
  <path d="m439.69 331.57c-24.742 0-44.867 20.113-44.867 44.844 0 24.754 20.125 44.891 44.867 44.891 24.742 0 44.867-20.137 44.867-44.891 0-24.742-20.129-44.844-44.867-44.844zm0 67.32c-12.387 0-22.469-10.078-22.469-22.488 0-12.363 10.07-22.445 22.469-22.445 12.398 0 22.469 10.07 22.469 22.445-0.003906 12.41-10.082 22.488-22.469 22.488z"/>
  <path d="m528.71 427.91c-24.73 0-44.844 20.113-44.844 44.844 0 24.773 20.113 44.922 44.844 44.922s44.844-20.148 44.844-44.922c0-24.727-20.113-44.844-44.844-44.844zm0 67.367c-12.363 0-22.445-10.102-22.445-22.523 0-12.363 10.07-22.445 22.445-22.445s22.445 10.07 22.445 22.445c0 12.41-10.07 22.523-22.445 22.523z"/>
  <use x="70" y="728" xlink:href="#m"/>
  <use x="111.097656" y="728" xlink:href="#b"/>
  <use x="138.714844" y="728" xlink:href="#a"/>
  <use x="176.695312" y="728" xlink:href="#h"/>
  <use x="214.484375" y="728" xlink:href="#g"/>
  <use x="241.253906" y="728" xlink:href="#a"/>
  <use x="279.234375" y="728" xlink:href="#f"/>
  <use x="338.816406" y="728" xlink:href="#e"/>
  <use x="378.902344" y="728" xlink:href="#d"/>
  <use x="434.902344" y="728" xlink:href="#c"/>
  <use x="478.242188" y="728" xlink:href="#l"/>
  <use x="497.4375" y="728" xlink:href="#a"/>
  <use x="535.417969" y="728" xlink:href="#k"/>
  <use x="591.035156" y="728" xlink:href="#j"/>
  <use x="633.71875" y="728" xlink:href="#i"/>
  <use x="673.585938" y="728" xlink:href="#b"/>
 </g>
</svg>
