<?xml version="1.0" encoding="UTF-8"?>
<svg width="700pt" height="700pt" version="1.1" viewBox="0 0 700 700" xmlns="http://www.w3.org/2000/svg" xmlns:xlink="http://www.w3.org/1999/xlink">
 <defs>
  <symbol id="m" overflow="visible">
   <path d="m29.312-1.75c-1.5117 0.78125-3.0898 1.3711-4.7344 1.7656-1.6367 0.40625-3.3398 0.60938-5.1094 0.60938-5.3125 0-9.5273-1.4844-12.641-4.4531-3.1055-2.9688-4.6562-7-4.6562-12.094s1.5508-9.125 4.6562-12.094c3.1133-2.9688 7.3281-4.4531 12.641-4.4531 1.7695 0 3.4727 0.19922 5.1094 0.59375 1.6445 0.39844 3.2227 0.99219 4.7344 1.7812v6.5938c-1.5312-1.0391-3.0391-1.8008-4.5156-2.2812-1.4805-0.48828-3.0391-0.73438-4.6719-0.73438-2.9375 0-5.2461 0.94531-6.9219 2.8281-1.6797 1.875-2.5156 4.4648-2.5156 7.7656 0 3.293 0.83594 5.8828 2.5156 7.7656 1.6758 1.875 3.9844 2.8125 6.9219 2.8125 1.6328 0 3.1914-0.23828 4.6719-0.71875 1.4766-0.48828 2.9844-1.2539 4.5156-2.2969z"/>
  </symbol>
  <symbol id="k" overflow="visible">
   <path d="m21.453-17.406c-0.67969-0.3125-1.3516-0.53906-2.0156-0.6875-0.65625-0.15625-1.3203-0.23438-1.9844-0.23438-1.9688 0-3.4844 0.63281-4.5469 1.8906-1.0547 1.2617-1.5781 3.0703-1.5781 5.4219v11.016h-7.6562v-23.922h7.6562v3.9219c0.97656-1.5625 2.1016-2.7031 3.375-3.4219 1.2812-0.71875 2.8125-1.0781 4.5938-1.0781 0.25 0 0.52344 0.011719 0.82812 0.03125 0.30078 0.023438 0.73438 0.070312 1.2969 0.14062z"/>
  </symbol>
  <symbol id="c" overflow="visible">
   <path d="m27.562-12.031v2.1875h-17.891c0.1875 1.793 0.83203 3.1367 1.9375 4.0312 1.1133 0.89844 2.6719 1.3438 4.6719 1.3438 1.6016 0 3.25-0.23438 4.9375-0.70312 1.6875-0.47656 3.4219-1.2031 5.2031-2.1719v5.8906c-1.8047 0.6875-3.6094 1.2031-5.4219 1.5469-1.8125 0.35156-3.6211 0.53125-5.4219 0.53125-4.3359 0-7.7031-1.0977-10.109-3.2969-2.3984-2.207-3.5938-5.2969-3.5938-9.2656 0-3.9062 1.1758-6.9727 3.5312-9.2031 2.3633-2.2383 5.6094-3.3594 9.7344-3.3594 3.7578 0 6.7695 1.1367 9.0312 3.4062 2.2578 2.2617 3.3906 5.2812 3.3906 9.0625zm-7.8594-2.5312c0-1.457-0.42969-2.6289-1.2812-3.5156-0.84375-0.89453-1.9492-1.3438-3.3125-1.3438-1.4922 0-2.6992 0.41797-3.625 1.25-0.91797 0.83594-1.4922 2.0391-1.7188 3.6094z"/>
  </symbol>
  <symbol id="a" overflow="visible">
   <path d="m14.391-10.766c-1.5938 0-2.793 0.27344-3.5938 0.8125-0.80469 0.54297-1.2031 1.3398-1.2031 2.3906 0 0.96875 0.32031 1.7305 0.96875 2.2812 0.64453 0.54297 1.5469 0.8125 2.7031 0.8125 1.4375 0 2.6445-0.51562 3.625-1.5469 0.98828-1.0312 1.4844-2.3203 1.4844-3.875v-0.875zm11.688-2.8906v13.656h-7.7031v-3.5469c-1.0312 1.4492-2.1875 2.5078-3.4688 3.1719s-2.8398 1-4.6719 1c-2.4805 0-4.4961-0.72266-6.0469-2.1719-1.543-1.4453-2.3125-3.3203-2.3125-5.625 0-2.8125 0.96094-4.8672 2.8906-6.1719 1.9375-1.3125 4.9688-1.9688 9.0938-1.9688h4.5156v-0.60938c0-1.207-0.48047-2.0938-1.4375-2.6562-0.94922-0.5625-2.4375-0.84375-4.4688-0.84375-1.6367 0-3.1562 0.16797-4.5625 0.5-1.4062 0.32422-2.7188 0.8125-3.9375 1.4688v-5.8281c1.6445-0.40625 3.2891-0.70703 4.9375-0.90625 1.6562-0.20703 3.3047-0.3125 4.9531-0.3125 4.3203 0 7.4375 0.85547 9.3438 2.5625 1.9141 1.6992 2.875 4.4609 2.875 8.2812z"/>
  </symbol>
  <symbol id="b" overflow="visible">
   <path d="m12.031-30.719v6.7969h7.875v5.4688h-7.875v10.141c0 1.1172 0.21875 1.8711 0.65625 2.2656 0.4375 0.38672 1.3125 0.57812 2.625 0.57812h3.9375v5.4688h-6.5625c-3.0234 0-5.1641-0.62891-6.4219-1.8906-1.2617-1.2578-1.8906-3.3984-1.8906-6.4219v-10.141h-3.7969v-5.4688h3.7969v-6.7969z"/>
  </symbol>
  <symbol id="j" overflow="visible">
   <path d="m19.953-20.422v-12.812h7.6875v33.234h-7.6875v-3.4531c-1.0547 1.4062-2.2148 2.4375-3.4844 3.0938-1.2734 0.65625-2.7422 0.98438-4.4062 0.98438-2.9492 0-5.3711-1.1719-7.2656-3.5156-1.8867-2.3438-2.8281-5.3594-2.8281-9.0469s0.94141-6.7031 2.8281-9.0469c1.8945-2.3438 4.3164-3.5156 7.2656-3.5156 1.6562 0 3.1172 0.33594 4.3906 1 1.2812 0.65625 2.4453 1.6836 3.5 3.0781zm-5.0469 15.484c1.6445 0 2.8945-0.59766 3.75-1.7969 0.86328-1.1953 1.2969-2.9297 1.2969-5.2031 0-2.2812-0.43359-4.0195-1.2969-5.2188-0.85547-1.1953-2.1055-1.7969-3.75-1.7969-1.625 0-2.8711 0.60156-3.7344 1.7969-0.85547 1.1992-1.2812 2.9375-1.2812 5.2188 0 2.2734 0.42578 4.0078 1.2812 5.2031 0.86328 1.1992 2.1094 1.7969 3.7344 1.7969z"/>
  </symbol>
  <symbol id="i" overflow="visible">
   <path d="m16.406-4.9375c1.6328 0 2.8828-0.59766 3.75-1.7969 0.86328-1.1953 1.2969-2.9297 1.2969-5.2031 0-2.2812-0.43359-4.0195-1.2969-5.2188-0.86719-1.1953-2.1172-1.7969-3.75-1.7969-1.6367 0-2.8906 0.60547-3.7656 1.8125-0.875 1.1992-1.3125 2.9336-1.3125 5.2031 0 2.2617 0.4375 3.9961 1.3125 5.2031 0.875 1.1992 2.1289 1.7969 3.7656 1.7969zm-5.0781-15.484c1.0508-1.3945 2.2188-2.4219 3.5-3.0781 1.2812-0.66406 2.7539-1 4.4219-1 2.9453 0 5.3672 1.1719 7.2656 3.5156 1.8945 2.3438 2.8438 5.3594 2.8438 9.0469s-0.94922 6.7031-2.8438 9.0469c-1.8984 2.3438-4.3203 3.5156-7.2656 3.5156-1.668 0-3.1406-0.33594-4.4219-1s-2.4492-1.6914-3.5-3.0781v3.4531h-7.6562v-33.234h7.6562z"/>
  </symbol>
  <symbol id="h" overflow="visible">
   <path d="m0.53125-23.922h7.6562l6.4219 16.234 5.4688-16.234h7.6562l-10.062 26.188c-1.0117 2.6641-2.1953 4.5234-3.5469 5.5781-1.3438 1.0625-3.1211 1.5938-5.3281 1.5938h-4.4219v-5.0156h2.3906c1.3008 0 2.2422-0.21094 2.8281-0.625 0.59375-0.40625 1.0547-1.1484 1.3906-2.2188l0.20312-0.65625z"/>
  </symbol>
  <symbol id="g" overflow="visible">
   <path d="m4.0156-31.891h9.1875l11.594 21.875v-21.875h7.7969v31.891h-9.1875l-11.594-21.875v21.875h-7.7969z"/>
  </symbol>
  <symbol id="f" overflow="visible">
   <path d="m3.6719-23.922h7.6562v23.922h-7.6562zm0-9.3125h7.6562v6.2344h-7.6562z"/>
  </symbol>
  <symbol id="e" overflow="visible">
   <path d="m27.734-14.562v14.562h-7.7031v-11.109c0-2.0938-0.046875-3.5312-0.14062-4.3125-0.085937-0.78125-0.24219-1.3594-0.46875-1.7344-0.30469-0.5-0.71094-0.88281-1.2188-1.1562-0.51172-0.28125-1.0938-0.42188-1.75-0.42188-1.5938 0-2.8516 0.61719-3.7656 1.8438-0.90625 1.2305-1.3594 2.9375-1.3594 5.125v11.766h-7.6562v-33.234h7.6562v12.812c1.1445-1.3945 2.3633-2.4219 3.6562-3.0781 1.3008-0.66406 2.7383-1 4.3125-1 2.7578 0 4.8516 0.85156 6.2812 2.5469 1.4375 1.6875 2.1562 4.1523 2.1562 7.3906z"/>
  </symbol>
  <symbol id="d" overflow="visible">
   <path d="m27.734-14.562v14.562h-7.7031v-11.156c0-2.0625-0.046875-3.4844-0.14062-4.2656-0.085937-0.78125-0.24219-1.3594-0.46875-1.7344-0.30469-0.5-0.71094-0.88281-1.2188-1.1562-0.51172-0.28125-1.0938-0.42188-1.75-0.42188-1.5938 0-2.8516 0.61719-3.7656 1.8438-0.90625 1.2305-1.3594 2.9375-1.3594 5.125v11.766h-7.6562v-23.922h7.6562v3.5c1.1445-1.3945 2.3633-2.4219 3.6562-3.0781 1.3008-0.66406 2.7383-1 4.3125-1 2.7578 0 4.8516 0.85156 6.2812 2.5469 1.4375 1.6875 2.1562 4.1523 2.1562 7.3906z"/>
  </symbol>
  <symbol id="l" overflow="visible">
   <path d="m0.21875-31.891h29.391v6.2188h-10.578v25.672h-8.2188v-25.672h-10.594z"/>
  </symbol>
 </defs>
 <g>
  <path d="m350 105c-11.473 0.19141-22.426 4.8125-30.57 12.895-8.1445 8.0781-12.848 18.996-13.129 30.465l17.484 0.77734v0.003906c-0.10156-7.1484 2.7148-14.031 7.7969-19.055 5.0859-5.0273 12-7.7617 19.145-7.5781 7.1445 0.1875 13.91 3.2773 18.727 8.5586 4.8164 5.2852 7.2695 12.301 6.7969 19.434 0.21484 7.1914-2.4258 14.172-7.3438 19.422-4.9219 5.2461-11.719 8.3281-18.906 8.5781-2.3203 0-4.5469 0.92188-6.1875 2.5625s-2.5625 3.8672-2.5625 6.1875v49h17.5v-41.164c10.047-2.3242 18.996-8.0117 25.363-16.121 6.3672-8.1094 9.7656-18.152 9.6367-28.465 0.21484-11.828-4.2695-23.262-12.473-31.789-8.1992-8.5312-19.449-13.461-31.277-13.711z"/>
  <path d="m350 245h0.007812c4.832 0 8.7461 4.832 8.7461 8.7461v0.007812c0 4.832-3.918 8.7461-8.7461 8.7461h-0.007812c-4.832 0-8.7461-4.832-8.7461-8.7461v-0.007812c0-4.832 3.918-8.7461 8.7461-8.7461z"/>
  <path d="m437.89 63.168 16.715 5.1797h-0.003906c1.375-4.4336 4.457-8.1406 8.5625-10.305 4.1055-2.1641 8.9062-2.6055 13.34-1.2305 4.4336 1.375 8.1406 4.4531 10.301 8.5625 2.1641 4.1055 2.6094 8.9023 1.2344 13.336-1.375 4.4336-4.4531 8.1406-8.5625 10.305-4.1055 2.1641-8.9023 2.6055-13.336 1.2305-2.2188-0.69141-4.6172-0.47266-6.6719 0.61328-2.0547 1.082-3.5938 2.9375-4.2773 5.1562l-7.7656 25.07 16.715 5.1797 5.5039-17.77h-0.003907c8.7656 0.42188 17.367-2.4648 24.105-8.0859s11.117-13.566 12.273-22.262c1.1562-8.6992-0.99609-17.512-6.0273-24.699-5.0352-7.1875-12.586-12.219-21.152-14.102-8.5703-1.8867-17.535-0.48438-25.117 3.9297-7.5859 4.4102-13.234 11.512-15.832 19.891z"/>
  <path d="m448.02 148.75c2.2188 0.6875 4.6133 0.46484 6.668-0.61719 2.0508-1.082 3.5898-2.9336 4.2773-5.1484v-0.003906c0.6875-2.2148 0.46484-4.6133-0.61719-6.668-1.082-2.0508-2.9336-3.5898-5.1484-4.2773h-0.003907c-2.2148-0.6875-4.6133-0.46484-6.668 0.61719-2.0508 1.082-3.5898 2.9336-4.2773 5.1484v0.003907c-0.6875 2.2188-0.46484 4.6133 0.61719 6.668 1.082 2.0508 2.9336 3.5898 5.1484 4.2773z"/>
  <path d="m260.3 31.527c-4.3906-11.688-14.676-20.148-26.988-22.211s-24.789 2.5938-32.746 12.211c-7.957 9.6172-10.188 22.746-5.8594 34.457l16.406-6.1094v-0.003906c-1.6211-4.3477-1.4531-9.1641 0.47656-13.387 1.9258-4.2266 5.4531-7.5117 9.8047-9.1328 4.3516-1.625 9.168-1.4531 13.391 0.47656s7.5078 5.457 9.1289 9.8086c1.6211 4.3477 1.4492 9.168-0.48047 13.391-1.9297 4.2227-5.4609 7.5039-9.8125 9.125-4.5234 1.6914-6.8203 6.7266-5.1328 11.254l9.1602 24.598 16.406-6.1094-6.5039-17.43c6.3633-4.4453 11.066-10.879 13.375-18.289 2.3086-7.4102 2.0859-15.379-0.625-22.648z"/>
  <path d="m248.9 101.15c-4.5234 1.6875-6.8242 6.7266-5.1367 11.25l0.003906 0.007812c0.80859 2.1797 2.4492 3.9492 4.5625 4.9141 2.1094 0.96875 4.5234 1.0547 6.6992 0.24219 2.1758-0.80859 3.9414-2.457 4.9023-4.5703 0.96484-2.1172 1.043-4.5273 0.22656-6.7031l-0.003906-0.007812v0.003906c-0.80859-2.1758-2.4531-3.9375-4.5625-4.9023-2.1094-0.96094-4.5156-1.0469-6.6914-0.23437z"/>
  <path d="m505.75 499.2v-106.79l30.086-7.3867v0.003906c3.082-0.75391 5.5156-3.1211 6.3555-6.1836s-0.046875-6.3359-2.3164-8.5586l-44.102-43.297h0.003906c-1.207-1.1641-2.7227-1.9531-4.3711-2.2695l0.011719-0.058594-88.199-18.23-3.5391 17.141 46.734 9.6602-96.414 19.93-96.418-19.93 46.734-9.6602-3.5391-17.141-88.195 18.23 0.011719 0.058594c-1.6445 0.31641-3.1641 1.1055-4.3711 2.2695l-44.102 43.297h0.003906c-2.2695 2.2227-3.1562 5.4961-2.3164 8.5586s3.2734 5.4297 6.3555 6.1836l30.086 7.3867 0.003906 106.79c0 3.8828 2.5547 7.2969 6.2773 8.3945l147 43.297c1.6094 0.48828 3.3242 0.47266 4.9258-0.039062l0.011719 0.042969 147-43.301c3.7227-1.0938 6.2773-4.5117 6.2812-8.3945zm-322.17-127.43 29.574-29.027 121.79 25.172-25.32 34.789zm157.67 159.03-129.5-38.145v-95.949l99.41 24.402 0.003906-0.003906c3.4492 0.84766 7.0703-0.47656 9.1602-3.3477l20.926-28.762zm145.6-188.05 29.574 29.027-126.05 30.938-25.32-34.793zm1.4023 149.91-129.5 38.145v-141.8l20.926 28.762c2.0898 2.8711 5.7109 4.1953 9.1602 3.3477l99.414-24.398z"/>
  <path d="m568.23 188.38c0.55469-3.1797-0.68359-6.4023-3.2227-8.3945-9.1289-6.2148-15.688-15.535-18.449-26.227-1.0117-3.0625-3.6289-5.3203-6.8047-5.8711-3.1758-0.55469-6.3984 0.6875-8.3867 3.2266-6.2148 9.125-15.535 15.68-26.227 18.445-3.0586 1.0117-5.3164 3.625-5.8711 6.8008-0.55078 3.1758 0.6875 6.4023 3.2227 8.3906 9.1289 6.2148 15.688 15.539 18.449 26.23 1.0117 3.0625 3.625 5.3164 6.8008 5.8711 0.49609 0.085938 1 0.12891 1.5039 0.12891 2.6914 0 5.2305-1.2383 6.8867-3.3555 6.2109-9.1289 15.535-15.688 26.227-18.445 3.0586-1.0156 5.3125-3.6289 5.8711-6.8008zm-36.172 3.7227v-0.003906c-2.168-4.1445-4.8672-7.9844-8.0312-11.422 4.1406-2.168 7.9766-4.8711 11.414-8.0391 2.1641 4.1445 4.8711 7.9883 8.043 11.426-4.1484 2.1641-7.9883 4.8672-11.426 8.0352z"/>
  <path d="m132.72 245.69c0.65625 3.1562 2.9922 5.6992 6.0859 6.6172 0.80859 0.23828 1.6445 0.35937 2.4844 0.35937 2.3359 0 4.5781-0.93359 6.2227-2.5938 7.2227-8.3477 17.234-13.781 28.172-15.289 3.1602-0.65234 5.707-2.9922 6.6211-6.082 0.91797-3.0938 0.058593-6.4414-2.2383-8.7109-8.3438-7.2266-13.777-17.238-15.285-28.176-0.65234-3.1602-2.9922-5.707-6.082-6.6211-3.0938-0.91797-6.4414-0.058594-8.7109 2.2383-7.2266 8.3477-17.242 13.785-28.18 15.293-3.1602 0.65234-5.6992 2.9922-6.6172 6.0859-0.91406 3.0898-0.054687 6.4336 2.2422 8.7031 8.3477 7.2227 13.781 17.238 15.285 28.176zm18.832-36.406c1.6758 4.3672 3.918 8.4922 6.668 12.277-4.3672 1.668-8.4922 3.9062-12.273 6.6562-1.6719-4.3672-3.9141-8.4922-6.6641-12.273 4.3672-1.668 8.4922-3.9102 12.27-6.6602z"/>
  <path d="m359.79 310.86 15.414 8.2812c18.039-33.895 44.098-62.859 75.906-84.363 15.734-10.492 32.715-18.984 50.551-25.277l-5.8281-16.5c-19.207 6.7812-37.5 15.926-54.449 27.223-34.184 23.105-62.195 54.223-81.594 90.637z"/>
  <path d="m185.12 209.89c10.66-1.7422 21.531-1.7461 32.191-0.015625 68.035 11.34 101.05 92.074 106.97 108.15l16.422-6.0586c-6.5195-17.664-42.945-106.43-120.53-119.35l0.003906 0.003906c-12.523-2.0508-25.293-2.0586-37.812-0.015625z"/>
  <use x="70" y="691.25" xlink:href="#m"/>
  <use x="102.109375" y="691.25" xlink:href="#k"/>
  <use x="123.683594" y="691.25" xlink:href="#c"/>
  <use x="153.355469" y="691.25" xlink:href="#a"/>
  <use x="182.878906" y="691.25" xlink:href="#b"/>
  <use x="203.792969" y="691.25" xlink:href="#c"/>
  <use x="233.464844" y="691.25" xlink:href="#j"/>
  <use x="280.011719" y="691.25" xlink:href="#i"/>
  <use x="311.328125" y="691.25" xlink:href="#h"/>
  <use x="355.078125" y="691.25" xlink:href="#g"/>
  <use x="391.695312" y="691.25" xlink:href="#f"/>
  <use x="406.691406" y="691.25" xlink:href="#b"/>
  <use x="427.605469" y="691.25" xlink:href="#e"/>
  <use x="458.75" y="691.25" xlink:href="#f"/>
  <use x="473.746094" y="691.25" xlink:href="#d"/>
  <use x="504.894531" y="691.25" xlink:href="#a"/>
  <use x="534.417969" y="691.25" xlink:href="#d"/>
  <use x="580.792969" y="691.25" xlink:href="#l"/>
  <use x="610.636719" y="691.25" xlink:href="#a"/>
  <use x="640.160156" y="691.25" xlink:href="#b"/>
  <use x="661.074219" y="691.25" xlink:href="#a"/>
  <use x="690.597656" y="691.25" xlink:href="#e"/>
 </g>
</svg>
